<?xml version="1.0" standalone="no"?>
<!DOCTYPE svg PUBLIC "-//W3C//DTD SVG 20010904//EN"
 "http://www.w3.org/TR/2001/REC-SVG-20010904/DTD/svg10.dtd">
<svg version="1.0" xmlns="http://www.w3.org/2000/svg"
 width="267.000000pt" height="189.000000pt" viewBox="0 0 267.000000 189.000000"
 preserveAspectRatio="xMidYMid meet">

<g transform="translate(0.000000,189.000000) scale(0.100000,-0.100000)"
fill="#000000" stroke="none">
<path d="M1076 1451 c-56 -56 -86 -93 -81 -101 5 -8 -24 -44 -78 -99 -113
-115 -113 -120 -3 -231 54 -52 82 -88 79 -99 -2 -10 28 -48 87 -106 l90 -90
80 80 79 79 80 -78 c66 -64 83 -76 98 -67 37 20 165 162 168 186 1 16 33 56
81 106 105 106 105 110 -4 220 -53 55 -82 91 -77 99 8 13 -160 190 -180 190
-6 0 -44 -34 -85 -75 l-75 -75 -75 75 c-41 41 -80 75 -85 75 -6 0 -50 -40 -99
-89z m172 -188 l-78 -78 -75 75 -75 75 77 77 78 78 75 -75 75 -75 -77 -77z
m322 2 l-75 -75 -75 75 -75 75 75 75 75 75 75 -75 75 -75 -75 -75z m-482 -202
l-78 -78 -75 75 -75 75 77 77 78 78 75 -75 75 -75 -77 -77z m320 -1 l-79 -76
-74 74 -75 75 77 77 78 78 76 -76 76 -75 -79 -77z m327 -1 l-74 -75 -79 76
-78 77 75 75 76 76 77 -77 78 -78 -75 -74z m-486 -55 l73 -73 -73 -77 -73 -77
-78 78 -78 78 72 72 c40 40 75 73 78 73 3 0 38 -33 79 -74z m328 2 l73 -73
-72 -72 c-40 -40 -77 -73 -83 -73 -5 0 -42 33 -82 72 l-73 73 72 72 c40 40 77
73 83 73 5 0 42 -33 82 -72z"/>
<path d="M708 639 c-15 -8 -18 -25 -18 -94 l0 -85 49 0 c32 0 55 6 65 16 18
17 21 59 7 69 -5 3 -7 20 -4 39 4 27 1 36 -18 50 -27 18 -56 20 -81 5z m57
-45 c0 -10 -8 -20 -17 -22 -18 -3 -26 27 -11 42 12 11 28 0 28 -20z m10 -79
c0 -13 -8 -21 -22 -23 -19 -3 -23 1 -23 23 0 22 4 26 23 23 14 -2 22 -10 22
-23z"/>
<path d="M1033 642 l-43 -3 0 -90 c0 -82 1 -89 20 -89 16 0 20 7 20 34 0 32 3
35 33 38 20 2 32 8 32 18 0 10 -12 16 -32 18 -25 2 -33 8 -33 23 0 15 7 19 35
19 23 0 35 5 35 14 0 18 -15 22 -67 18z"/>
<path d="M862 628 c-7 -7 -12 -40 -12 -78 0 -38 5 -71 12 -78 18 -18 98 -16
98 3 0 10 -11 15 -35 15 -31 0 -35 3 -35 25 0 21 5 25 30 25 20 0 30 5 30 15
0 10 -10 15 -30 15 -23 0 -30 5 -30 19 0 15 8 21 32 23 17 2 33 9 36 16 5 16
-79 17 -96 0z"/>
<path d="M1202 628 c-7 -7 -12 -40 -12 -78 0 -38 5 -71 12 -78 18 -18 98 -16
98 3 0 10 -11 15 -35 15 -31 0 -35 3 -35 25 0 21 5 25 30 25 20 0 30 5 30 15
0 10 -10 15 -30 15 -23 0 -30 4 -30 20 0 16 7 20 35 20 24 0 35 5 35 15 0 19
-80 21 -98 3z"/>
<path d="M1334 591 c-2 -2 -4 -33 -4 -68 0 -56 2 -63 19 -63 17 0 20 8 23 53
2 38 7 52 18 52 11 0 16 -14 18 -53 3 -44 6 -53 20 -50 13 2 18 15 20 50 5 70
-9 88 -64 86 -25 -2 -47 -4 -50 -7z"/>
<path d="M1490 580 c-28 -28 -26 -75 5 -105 25 -25 41 -30 69 -19 27 10 20 37
-9 32 -14 -3 -30 1 -36 8 -9 11 -4 14 30 14 38 0 41 2 41 28 0 56 -61 81 -100
42z m58 -28 c2 -7 -6 -12 -17 -12 -21 0 -27 11 -14 24 9 9 26 2 31 -12z"/>
<path d="M1625 591 c-3 -2 -5 -33 -5 -68 0 -56 2 -63 20 -63 17 0 20 7 20 51
0 42 3 52 20 56 35 9 23 31 -15 30 -20 -1 -38 -3 -40 -6z"/>
<path d="M1732 588 c-16 -16 -16 -100 0 -116 7 -7 25 -12 41 -12 36 0 31 -24
-6 -28 -15 -2 -27 -10 -27 -18 0 -22 57 -17 80 6 18 18 20 31 18 97 l-3 77
-46 3 c-25 2 -50 -2 -57 -9z m63 -58 c0 -40 -29 -55 -40 -21 -9 30 4 63 23 59
12 -2 17 -14 17 -38z"/>
<path d="M1867 594 c-8 -8 3 -93 15 -116 5 -10 20 -18 34 -18 32 0 27 -24 -5
-28 -12 -2 -20 -9 -18 -15 6 -18 40 -20 62 -3 17 12 21 28 24 100 2 71 0 86
-12 86 -14 0 -27 -40 -27 -86 0 -46 -27 -26 -36 28 -8 48 -22 67 -37 52z"/>
<path d="M1040 345 c0 -18 5 -25 20 -25 15 0 20 7 20 25 0 18 -5 25 -20 25
-15 0 -20 -7 -20 -25z"/>
<path d="M1102 345 c0 -16 2 -22 5 -12 2 9 2 23 0 30 -3 6 -5 -1 -5 -18z"/>
<path d="M1130 346 c0 -29 26 -42 38 -18 13 23 4 42 -19 42 -13 0 -19 -7 -19
-24z m30 -1 c0 -8 -4 -15 -10 -15 -5 0 -10 7 -10 15 0 8 5 15 10 15 6 0 10 -7
10 -15z"/>
<path d="M1220 345 c0 -17 5 -25 18 -25 14 0 15 2 2 10 -13 9 -13 10 0 10 12
0 13 2 1 9 -11 7 -11 9 0 14 10 4 9 6 -3 6 -13 1 -18 -7 -18 -24z"/>
<path d="M1270 346 c0 -13 7 -26 15 -30 8 -3 15 -1 15 4 0 6 -4 10 -10 10 -14
0 -12 27 3 33 7 3 5 6 -5 6 -13 1 -18 -7 -18 -23z"/>
<path d="M1327 363 c-12 -12 -7 -41 7 -46 19 -7 40 18 32 38 -6 15 -28 20 -39
8z m23 -18 c0 -8 -4 -15 -10 -15 -5 0 -10 7 -10 15 0 8 5 15 10 15 6 0 10 -7
10 -15z"/>
<path d="M1410 345 c0 -22 2 -24 14 -13 9 8 10 15 4 19 -6 4 -5 9 3 12 10 4 9
6 -3 6 -13 1 -18 -7 -18 -24z"/>
<path d="M1461 348 c-1 -21 4 -28 17 -28 11 0 13 3 6 8 -7 4 -14 16 -17 27 -4
15 -5 14 -6 -7z"/>
<path d="M1511 349 c-1 -27 23 -47 34 -29 11 18 14 50 4 50 -5 0 -9 -9 -9 -20
0 -27 -18 -25 -23 3 -4 20 -4 19 -6 -4z"/>
<path d="M1570 345 c0 -14 5 -25 10 -25 6 0 10 11 10 25 0 14 -4 25 -10 25 -5
0 -10 -11 -10 -25z"/>
<path d="M1610 346 c0 -20 5 -26 21 -26 15 0 20 5 17 22 -5 34 -38 37 -38 4z
m30 -1 c0 -8 -4 -15 -10 -15 -5 0 -10 7 -10 15 0 8 5 15 10 15 6 0 10 -7 10
-15z"/>
</g>
</svg>
